<svg width="26" height="26" viewBox="0 0 26 26" fill="none" xmlns="http://www.w3.org/2000/svg">
<g clip-path="url(#clip0_2_6)">
<path d="M8.86245 6.75516C8.06276 6.75516 7.53625 7.29656 7.53625 8.00188C7.53625 8.69727 8.04289 9.24861 8.82768 9.24861H8.84258C9.65718 9.24861 10.1688 8.6923 10.1688 8.00188C10.1539 7.29656 9.66214 6.75516 8.86245 6.75516Z" fill="#010101"/>
<path d="M9.87573 10.2917H7.53625V17.5137H9.87573V10.2917Z" fill="#010101"/>
<path d="M13 0.298019C6.14053 0.298019 0.582428 5.85613 0.582428 12.7156C0.582428 19.5751 6.14053 25.1332 13 25.1332C19.8595 25.1332 25.4176 19.5751 25.4176 12.7156C25.4176 5.85613 19.8595 0.298019 13 0.298019ZM13 23.6431C6.96506 23.6431 2.07254 18.7505 2.07254 12.7156C2.07254 6.68065 6.96506 1.78813 13 1.78813C19.0349 1.78813 23.9275 6.68065 23.9275 12.7156C23.9275 18.7505 19.0349 23.6431 13 23.6431Z" fill="#010101"/>
<path d="M15.7716 10.2917C14.5298 10.2917 13.9735 10.992 13.6606 11.4838V10.4606H11.3211C11.3509 11.1361 11.3211 17.6826 11.3211 17.6826H13.6606V13.6494C13.6606 13.4358 13.6755 13.2173 13.7401 13.0633C13.909 12.6312 14.2964 12.1841 14.9421 12.1841C15.7865 12.1841 16.1292 12.8447 16.1292 13.8183V17.6826H18.4637V13.5401C18.4637 11.3248 17.3114 10.2917 15.7716 10.2917Z" fill="#010101"/>
</g>
<defs>
<clipPath id="clip0_2_6">
<rect width="25.4312" height="25.4312" fill="white" transform="translate(0.284393)"/>
</clipPath>
</defs>
</svg>
