<svg width="26" height="26" viewBox="0 0 26 26" fill="none" xmlns="http://www.w3.org/2000/svg">
<path d="M15.5839 12.5887L12.1829 10.6395C12.0357 10.5532 11.8986 10.6598 11.8986 10.8324V14.6293C11.8986 14.7968 12.0306 14.9034 12.1778 14.8222L15.5585 12.9694V12.9745C15.7057 12.8882 15.7311 12.675 15.5839 12.5887Z" fill="#010101"/>
<path d="M13.2844 0C6.27434 0 0.568817 5.70552 0.568817 12.7156C0.568817 19.7257 6.27434 25.4312 13.2844 25.4312C20.2945 25.4312 26 19.7257 26 12.7156C26 5.70552 20.2945 0 13.2844 0ZM17.6346 18.0201H9.16263C7.36062 18.0201 5.89871 16.5582 5.89871 14.7562V10.7867C5.89871 8.98467 7.36062 7.52276 9.16263 7.52276H17.6295C19.4316 7.52276 20.8935 8.98467 20.8935 10.7867V14.7562H20.8985C20.8985 16.5582 19.4366 18.0201 17.6346 18.0201Z" fill="#010101"/>
</svg>
