<svg width="26" height="26" viewBox="0 0 26 26" fill="none" xmlns="http://www.w3.org/2000/svg">
<g clip-path="url(#clip0_2_2)">
<path d="M12.7156 0.298019C5.87104 0.298019 0.298035 5.87103 0.298035 12.7156C0.298035 19.5602 5.87104 25.1332 12.7156 25.1332C19.5602 25.1332 25.1332 19.5651 25.1332 12.7156C25.1332 5.86606 19.5651 0.298019 12.7156 0.298019ZM12.7156 23.797C6.60616 23.797 1.63417 18.825 1.63417 12.7156C1.63417 6.60615 6.60616 1.63415 12.7156 1.63415C18.8251 1.63415 23.7971 6.60615 23.7971 12.7156C23.7971 18.825 18.8251 23.797 12.7156 23.797Z" fill="#010101"/>
<path d="M16.2074 16.9723C16.1826 16.9723 16.1528 16.9773 16.1279 16.9823C15.8051 17.0766 15.5071 17.1611 15.2339 17.2455C14.5087 17.4591 13.9027 17.3151 13.411 16.8482C13.3514 16.7687 13.3017 16.6843 13.2719 16.5899C13.2024 16.2124 13.1626 15.8299 13.1577 15.4475V11.757C13.1577 11.598 13.2868 11.4738 13.4408 11.4738H16.118C16.277 11.4738 16.4011 11.3447 16.4011 11.1907V9.21881C16.4011 9.05986 16.272 8.93569 16.118 8.93569H13.4358C13.2769 8.93569 13.1527 8.80654 13.1527 8.65257V6.05978C13.1527 5.90083 13.0236 5.77666 12.8696 5.77666H11.3397C11.1957 5.77666 11.0765 5.88096 11.0566 6.02501C10.997 6.41244 10.1874 8.34461 9.15424 8.79164C8.96052 8.88105 8.75191 8.93072 8.53832 8.93569C8.38435 8.94065 8.26514 9.0698 8.26514 9.21881V11.1858C8.26514 11.3447 8.39428 11.4689 8.54826 11.4689H9.47709C9.63604 11.4689 9.76021 11.598 9.76021 11.752C9.78505 15.1445 9.78505 17.2058 9.78505 17.2207C9.97876 18.7704 10.7934 19.6992 12.2388 20.0519C12.8398 20.2108 13.4607 20.2903 14.0865 20.2853C14.8365 20.2605 15.5766 20.1413 16.2919 19.9277C16.4111 19.893 16.4955 19.7787 16.4955 19.6545V17.2555C16.4955 17.1015 16.3664 16.9723 16.2074 16.9723Z" fill="#010101"/>
</g>
<defs>
<clipPath id="clip0_2_2">
<rect width="25.4312" height="25.4312" fill="white"/>
</clipPath>
</defs>
</svg>
