<svg width="30" height="30" viewBox="0 0 30 30" fill="none" xmlns="http://www.w3.org/2000/svg">
<g clip-path="url(#clip0_58_15)">
<path d="M29.9025 5.58757L3.54236 3.40588L2.84742e-06 22.4282L26.3601 24.6099L29.9025 5.58757Z" fill="#D9D9D9"/>
<path d="M3.99916 10.7133C3.92294 10.6959 3.83057 10.6515 3.72201 10.5801C3.63288 10.5097 3.5446 10.4329 3.45713 10.3496C3.38913 10.2674 3.33085 10.1857 3.28232 10.1046C3.23379 10.0234 3.21279 9.95691 3.21935 9.90502C3.33188 9.48012 3.60563 9.17537 4.0406 8.99075C4.49666 8.79425 5.00207 8.67237 5.55688 8.62516C6.11166 8.57793 6.68097 8.57075 7.26485 8.60356C7.84872 8.63637 8.34501 8.66427 8.75369 8.68725C9.43488 8.72554 10.0544 8.78648 10.6122 8.8701C11.1912 8.94185 11.6841 9.07408 12.0909 9.26683C12.4994 9.44658 12.8113 9.69279 13.0265 10.0054C13.2418 10.3181 13.3166 10.7339 13.251 11.2529C13.2182 11.5124 13.1692 11.7448 13.104 11.9502C13.0599 12.1438 12.9866 12.3357 12.8842 12.5259C12.7833 12.7032 12.6412 12.8977 12.4576 13.1095C12.2756 13.3084 12.0409 13.5369 11.7534 13.7952C12.5301 14.0087 13.1713 14.2081 13.677 14.3933C14.1845 14.5656 14.5702 14.7702 14.8343 15.0072C15.0999 15.2312 15.2617 15.5016 15.3197 15.8185C15.3987 16.1235 15.4079 16.516 15.3472 16.9961C15.2749 17.567 15.022 18.095 14.5882 18.5802C14.1544 19.0655 13.6024 19.4787 12.932 19.82C12.281 20.1624 11.5329 20.4208 10.6876 20.5955C9.84397 20.7571 8.96479 20.8122 8.05004 20.7608C7.85541 20.7499 7.59516 20.7157 7.26922 20.6581C6.94491 20.5876 6.59226 20.509 6.21122 20.4223C5.83182 20.3225 5.44351 20.2158 5.04629 20.102C4.65069 19.9752 4.29488 19.8441 3.97879 19.7088C3.66269 19.5734 3.40497 19.4413 3.20566 19.3125C3.02582 19.1848 2.94327 19.0626 2.95804 18.9458L3.99916 10.7133ZM5.35735 15.3173C5.35691 15.6309 5.29641 15.9542 5.17591 16.2872C5.05541 16.6201 4.94626 16.9407 4.84851 17.2488C4.75072 17.5569 4.69354 17.8542 4.67688 18.1408C4.66188 18.4143 4.74751 18.6674 4.93369 18.9C5.11988 19.1326 5.44557 19.3469 5.91082 19.543C6.37766 19.726 7.03516 19.874 7.88329 19.987C8.60341 20.0275 9.32444 19.9831 10.0464 19.8538C10.7895 19.7126 11.4523 19.5081 12.035 19.2404C12.6388 18.9607 13.1421 18.6231 13.5449 18.2276C13.9494 17.8191 14.1837 17.3619 14.2477 16.8558C14.2903 16.5185 14.2388 16.2281 14.0932 15.9847C13.9476 15.7414 13.7378 15.5401 13.4639 15.381C13.1917 15.2089 12.8553 15.0789 12.4548 14.991C12.0738 14.9043 11.6594 14.8483 11.2118 14.8232C10.6474 14.7915 10.1398 14.776 9.68885 14.7768C9.23957 14.7646 8.78701 14.7784 8.33119 14.8181C7.89644 14.8459 7.43816 14.9051 6.95629 14.9956C6.49554 15.0742 5.96257 15.1815 5.35735 15.3173ZM5.02947 13.2605C5.01635 13.3642 5.01213 13.4751 5.01682 13.593C5.02316 13.6978 5.04004 13.7968 5.06747 13.8898C5.11604 13.9709 5.19457 14.0472 5.30316 14.1187C5.41335 14.1771 5.56579 14.2118 5.76041 14.2227C6.4221 14.26 7.11394 14.2139 7.83591 14.0846C8.55788 13.9553 9.21994 13.7573 9.8221 13.4906C10.4437 13.225 10.9648 12.9015 11.3855 12.5201C11.8272 12.1267 12.0801 11.6771 12.1441 11.1711C12.1507 11.1192 12.1402 11.0467 12.1128 10.9537C12.087 10.8477 12.0125 10.739 11.8894 10.6275C11.7663 10.5161 11.5743 10.4073 11.3133 10.3011C11.0539 10.182 10.6948 10.0769 10.2359 9.98579C9.79651 9.89575 9.23704 9.8251 8.55747 9.77385C7.87794 9.72258 7.04754 9.70204 6.06622 9.71222C6.02401 9.73597 5.96469 9.81758 5.88826 9.95702C5.83129 10.0976 5.75966 10.2765 5.67338 10.4938C5.60819 10.6992 5.53972 10.9305 5.46797 11.1878C5.41735 11.4333 5.35616 11.6846 5.28441 11.9419C5.23379 12.1874 5.18397 12.4263 5.13497 12.6588C5.08597 12.8912 5.05082 13.0918 5.02947 13.2605Z" fill="#383838"/>
<path d="M16.7822 17.2727C16.9003 16.3385 17.0119 15.4562 17.1169 14.6258C17.2414 13.7965 17.374 12.9807 17.5146 12.1785C17.6764 11.3644 17.8487 10.5443 18.0316 9.71829C18.2161 8.87931 18.438 7.97708 18.6973 7.01162L19.5439 7.05923L18.5987 14.5327L24.9629 14.8904C25.0025 14.4222 25.0559 13.9221 25.1232 13.3902C25.1921 12.8452 25.2513 12.2997 25.3008 11.7537C25.3518 11.1947 25.4005 10.6552 25.4467 10.1351C25.5139 9.6031 25.5771 9.10358 25.6362 8.63648C25.6952 8.16939 25.7469 7.76069 25.7912 7.41035C25.8355 7.06004 25.87 6.78756 25.8946 6.59296C25.953 6.59623 26.0487 6.61466 26.1816 6.64829C26.3357 6.67 26.4784 6.70417 26.6097 6.75075C26.7621 6.78544 26.8926 6.83852 27.0012 6.90996C27.1114 6.96842 27.1607 7.04306 27.1493 7.13387L25.3058 21.711L24.4155 21.5435C24.3766 21.5412 24.3581 21.4552 24.3599 21.2854C24.3618 21.1158 24.3686 20.9071 24.3803 20.6594C24.4131 20.3999 24.4403 20.1075 24.4619 19.782C24.5045 19.4446 24.5358 19.1197 24.5558 18.8072C24.5968 18.4829 24.6256 18.1774 24.6423 17.8909C24.6783 17.6054 24.7087 17.3654 24.7333 17.1708C24.7563 16.9891 24.7874 16.7426 24.8268 16.4312C24.8662 16.1198 24.9016 15.7625 24.933 15.3591L18.4437 15.7588L17.6838 21.3023L16.2826 21.2235C16.2842 21.2106 16.2957 21.1198 16.317 20.951C16.3383 20.7824 16.3646 20.5748 16.3958 20.3282C16.4286 20.0687 16.4639 19.7898 16.5016 19.4914C16.541 19.18 16.5787 18.8816 16.6148 18.5961C16.6509 18.3107 16.6837 18.0512 16.7133 17.8176C16.7428 17.5841 16.7658 17.4024 16.7822 17.2727Z" fill="#4C90B6"/>
</g>
<defs>
<clipPath id="clip0_58_15">
<rect width="30" height="30" fill="white"/>
</clipPath>
</defs>
</svg>
