<svg width="33" height="32" viewBox="0 0 33 32" fill="none" xmlns="http://www.w3.org/2000/svg">
<g clip-path="url(#clip0_12_75)">
<path d="M28.2751 30.8846H21.9163L21.9341 20.807H25.3845C25.9799 20.807 26.5029 20.3731 26.5769 19.7685L27.0137 16.1978C27.0137 16.1978 27.0137 16.1978 27.0137 16.1977C27.1018 15.4783 26.5234 14.878 25.8214 14.878H21.9154V12.391C21.9154 11.7372 22.0152 11.328 22.2375 11.0721C22.447 10.8311 22.8685 10.6133 23.8088 10.6133H23.809L25.6657 10.6125H25.6658C26.3136 10.6121 26.8661 10.0992 26.8661 9.43338V6.42247C26.8661 5.75637 26.3132 5.24337 25.6651 5.24337H22.6396C20.699 5.24337 19.0111 5.81838 17.8055 6.97285C16.5963 8.13065 15.9282 9.81755 15.9282 11.9276V14.8779H13.4628C12.8129 14.8779 12.2592 15.3936 12.2618 16.0616V16.0616L12.2761 19.6324C12.2787 20.2965 12.8305 20.8068 13.477 20.8068H15.9469L15.929 30.8845H4.89942C2.77896 30.8845 1.08736 29.2233 1.08736 27.2072V4.56196C1.08736 2.54585 2.77904 0.884644 4.89942 0.884644H28.275C30.3954 0.884644 32.0871 2.54585 32.0871 4.56196V27.2074C32.0871 29.2234 30.3955 30.8846 28.2751 30.8846Z" fill="#CDB391" fill-opacity="0.5" stroke="#8B9297"/>
</g>
<defs>
<clipPath id="clip0_12_75">
<rect width="32" height="31" fill="white" transform="translate(0.587097 0.384644)"/>
</clipPath>
</defs>
</svg>
