<svg width="33" height="32" viewBox="0 0 33 32" fill="none" xmlns="http://www.w3.org/2000/svg">
<g clip-path="url(#clip0_12_71)">
<path d="M32.1455 27.4602C32.1455 29.3327 30.5604 30.8846 28.5646 30.8846H4.08085C2.08513 30.8846 0.5 29.3327 0.5 27.4602V3.91524C0.5 2.04277 2.08513 0.490845 4.08085 0.490845H28.5646C30.5604 0.490845 32.1455 2.04277 32.1455 3.91524V27.4602Z" fill="#CDB391" fill-opacity="0.5" stroke="#8B9297"/>
<path d="M23.7051 5.47333H9.0375C7.67087 5.47333 6.56358 6.54041 6.56358 7.85595V22.1529C6.56358 23.4691 7.67087 24.5356 9.0375 24.5356H23.7051C25.0717 24.5356 26.179 23.4691 26.179 22.1529V7.85595C26.179 6.54041 25.0717 5.47333 23.7051 5.47333ZM20.407 15.0051C20.407 17.1484 18.5964 18.8922 16.3716 18.8922C14.1462 18.8922 12.3356 17.1484 12.3356 15.0051C12.3356 14.3604 12.5019 13.7543 12.7911 13.2181C13.4646 11.9726 14.8149 11.118 16.3716 11.118C17.9276 11.118 19.2787 11.9719 19.9514 13.2181C20.2407 13.7536 20.407 14.3604 20.407 15.0051ZM23.9698 21.4318C23.9698 21.9712 23.5157 22.4086 22.9556 22.4086H9.87389C9.3138 22.4086 8.85961 21.9712 8.85961 21.4318V13.2175H10.5331C10.3464 13.7817 10.2439 14.3813 10.2439 15.0044C10.2439 18.258 12.9921 20.9047 16.3703 20.9047C19.7485 20.9047 22.4966 18.258 22.4966 15.0044C22.4966 14.3813 22.3941 13.7817 22.2074 13.2175H23.9692V21.4318H23.9698ZM23.9698 10.1424C23.9698 10.6819 23.5157 11.1193 22.9556 11.1193H21.4192C20.8591 11.1193 20.405 10.6819 20.405 10.1424V8.5281C20.405 8.09983 20.6928 7.7402 21.0913 7.60812H22.9549C23.515 7.60812 23.9692 8.04556 23.9692 8.58498V10.1424H23.9698Z" fill="#CDB391" fill-opacity="0.5"/>
<path d="M12.3511 14.1773L12.3513 14.1769C13.1112 12.7713 14.6295 11.8145 16.3716 11.8145C18.1128 11.8145 19.632 12.7705 20.3914 14.1771L12.3511 14.1773ZM12.3511 14.1773C12.0248 14.7822 11.8356 15.4694 11.8356 16.2016C11.8356 18.6386 13.8879 20.5888 16.3716 20.5888C18.8547 20.5888 20.907 18.6386 20.907 16.2016M12.3511 14.1773L20.907 16.2016M20.907 16.2016C20.907 15.4696 20.7179 14.7816 20.3914 14.1771L20.907 16.2016ZM24.4698 22.6283V22.1283H24.4692V14.414V13.914H23.9692H22.2074H21.5153L21.7327 14.5711C21.9033 15.0866 21.9966 15.6332 21.9966 16.201C21.9966 19.1608 19.4902 21.6013 16.3703 21.6013C13.2503 21.6013 10.7439 19.1608 10.7439 16.201C10.7439 15.6332 10.8372 15.0866 11.0078 14.5711L11.2252 13.914H10.5331H8.85961H8.35961V14.414V22.6283C8.35961 23.4614 9.05556 24.1051 9.87389 24.1051H22.9556C23.7739 24.1051 24.4698 23.4614 24.4698 22.6283ZM24.4698 11.3383V10.8383H24.4692V9.78088C24.4692 8.94777 23.7733 8.30402 22.9549 8.30402H21.0913H21.0106L20.934 8.32941C20.351 8.52262 19.905 9.05972 19.905 9.72399V11.3383C19.905 12.1714 20.6009 12.8152 21.4192 12.8152H22.9556C23.7739 12.8152 24.4698 12.1715 24.4698 11.3383ZM9.0375 7.16986H23.7051C24.8133 7.16986 25.679 8.03055 25.679 9.05248V23.3495C25.679 24.372 24.8134 25.2321 23.7051 25.2321H9.0375C7.92913 25.2321 7.06358 24.372 7.06358 23.3495V9.05248C7.06358 8.03055 7.92922 7.16986 9.0375 7.16986Z" fill="#B8C8D7" stroke="#8B9297"/>
</g>
<defs>
<clipPath id="clip0_12_71">
<rect width="32.5871" height="31.3846" fill="white"/>
</clipPath>
</defs>
</svg>
