<svg width="32" height="41" viewBox="0 0 32 41" fill="none" xmlns="http://www.w3.org/2000/svg">
<path d="M27.2509 26.3534L4.73502 26.3534C4.3546 26.3534 4.0459 25.9516 4.0459 25.4524C4.0459 24.9551 4.3546 24.5515 4.73502 24.5515L27.2509 24.5515C27.6328 24.5515 27.9408 24.9551 27.9408 25.4524C27.9408 25.9516 27.6328 26.3534 27.2509 26.3534ZM23.3127 34.7805L24.5939 34.0381L25.7527 37.3212L24.4715 38.0636L23.3127 34.7805ZM14.5936 2.92859L17.4064 2.92859L17.4064 9.23526L14.5936 9.23526L14.5936 2.92859ZM7.52613 38.0714L6.24493 37.3291L7.40378 34.046L8.68498 34.7884L7.52613 38.0714Z" fill="white" fill-opacity="0.6"/>
<path d="M27.2507 27.2541C28.0274 27.2541 28.657 26.4473 28.657 25.4522C28.657 24.457 28.0274 23.6503 27.2507 23.6503C26.474 23.6503 25.8443 24.457 25.8443 25.4522C25.8443 26.4473 26.474 27.2541 27.2507 27.2541Z" fill="white" fill-opacity="0.6"/>
<path d="M4.74901 27.2541C5.52571 27.2541 6.15536 26.4473 6.15536 25.4522C6.15536 24.457 5.52571 23.6503 4.74901 23.6503C3.9723 23.6503 3.34265 24.457 3.34265 25.4522C3.34265 26.4473 3.9723 27.2541 4.74901 27.2541Z" fill="white" fill-opacity="0.6"/>
<path d="M19.428 15.3032C18.7825 16.1861 17.9092 16.7897 16.9268 16.9618L23.4123 35.0539L24.6956 34.3052L24.8735 30.4257L19.428 15.3032ZM12.579 15.3032C13.2245 16.1861 14.0979 16.7897 15.0802 16.9618L8.59479 35.0539L7.31148 34.3052L7.13358 30.4257L12.579 15.3032Z" fill="white" fill-opacity="0.6"/>
<path d="M16 7.43335C13.6703 7.43335 11.7809 9.85421 11.7809 12.8391C11.7809 15.8239 13.6703 18.2448 16 18.2448C18.3296 18.2448 20.2191 15.8239 20.2191 12.8391C20.2191 9.85421 18.3296 7.43335 16 7.43335ZM16 15.5419C14.8355 15.5419 13.8904 14.331 13.8904 12.8391C13.8904 11.3471 14.8355 10.1362 16 10.1362C17.1645 10.1362 18.1095 11.3471 18.1095 12.8391C18.1095 14.331 17.1645 15.5419 16 15.5419ZM14.5936 22.7496L17.4064 22.7496L17.4064 28.1553L14.5936 28.1553L14.5936 22.7496Z" fill="white" fill-opacity="0.6"/>
</svg>
