<svg width="28" height="26" viewBox="0 0 28 26" fill="none" xmlns="http://www.w3.org/2000/svg">
<path d="M23.8562 25.7315C23.7073 25.5842 21.9809 23.9009 20.0217 21.9917L16.4594 18.5206L18.1508 16.9699L19.8423 15.4191L20.1765 15.7121C20.3608 15.8724 22.1783 17.4784 24.2162 19.2792L27.9217 22.5538L26.0422 24.2768C25.0083 25.2245 24.1548 26 24.1455 26C24.1455 26 24.0061 25.8787 23.8562 25.7315ZM25.4236 22.7921C25.5867 22.3317 25.7157 21.9536 25.7122 21.9516C25.7122 21.9495 25.3562 21.7157 24.9291 21.4316L24.1526 20.9155L23.4 21.4171C22.9862 21.6929 22.6359 21.9287 22.6215 21.941C22.5884 21.9692 22.5955 21.9865 22.9245 22.9154L23.1824 23.6428H24.1555H25.1286L25.4236 22.806V22.7921ZM5.84204 25.8793C5.3868 25.8035 4.97765 25.6648 4.58859 25.4535C4.33284 25.3149 3.80787 24.8848 3.60932 24.6508C3.43441 24.4428 3.21577 24.0244 3.14014 23.7468C3.05504 23.4378 3.03377 22.8062 3.09523 22.4643L3.14014 22.2166L7.04136 18.6404L10.9424 15.0644L11.594 15.1511L12.2454 15.2378L15.6531 12.0968L19.0608 8.95569L19.1507 8.74552C19.3823 8.20513 19.4634 7.61361 19.3634 7.19672C19.1861 6.45418 18.5961 5.93719 17.5471 5.60243C17.2167 5.49626 16.665 5.38792 16.3393 5.36192L16.1242 5.34025L15.1996 4.49219L14.2749 3.64434L16.1609 1.91527L18.0471 0.186202L19.0904 1.14217L20.1337 2.09814V2.28882C20.1101 2.55424 20.1952 2.97503 20.2992 3.21749C20.5965 3.91821 21.3656 4.326 22.3896 4.326H22.581L22.8486 4.5145C25.0163 6.0334 26.5198 7.55554 27.3443 9.06598C27.6844 9.68935 27.8024 10.0389 27.922 10.7803C27.9905 11.2035 28 11.3356 28 11.9642C28.0016 12.899 27.9125 13.5832 27.6568 14.5973C27.4842 15.2865 27.0533 16.5408 26.9028 16.7989C26.8697 16.8552 26.8342 16.8249 26.1329 16.1835L25.3973 15.5097L25.3737 14.8898C25.3312 13.4569 25.1068 12.4426 24.6478 11.5974C24.3429 11.0362 23.9742 10.6354 23.4788 10.3266C23.0401 10.0534 22.8481 10.0087 22.5843 10.1186C22.4874 10.1576 21.7772 10.7927 19.5976 12.7835C18.0246 14.2202 16.2294 15.8587 15.6082 16.4245L14.4786 17.453L14.4054 18.058L14.3321 18.663L14.06 18.916C13.9111 19.0547 12.196 20.6841 10.251 22.5358L6.71423 25.9025H6.39632C6.21904 25.9025 5.97819 25.8808 5.84984 25.87L5.84204 25.8793ZM9.89738 12.2422L8.66544 11.1129L8.41134 11.2061C7.85352 11.4098 7.22809 11.5521 6.60007 11.6184C6.13159 11.6682 5.29769 11.6401 4.86845 11.5534C2.55111 11.1064 0.949255 9.34094 0.108736 6.30771C-0.0118107 5.87501 -0.0141744 5.85312 0.0165532 5.68325C0.0756448 5.36647 0.267811 5.1992 0.573905 5.1979L0.708634 5.19725L0.878818 5.42671C1.62101 6.41908 2.54213 7.17137 3.38288 7.4719C3.77643 7.61274 3.94945 7.64307 4.35482 7.64524C4.65359 7.64632 4.77295 7.64524 4.96441 7.58674C5.76829 7.3874 6.80405 6.62275 7.41955 5.77382C7.82468 5.21501 8.05443 4.68048 8.20121 3.95505C8.25558 3.69157 8.2603 3.61899 8.2343 3.49093C8.11848 2.92086 7.20611 1.90964 5.9276 0.934598L5.65956 0.730923L5.65767 0.544583C5.65767 0.29324 5.73331 0.155434 5.92855 0.0631309C6.0491 0.00679536 6.10346 -0.00187148 6.31241 0.000295268C6.6081 0.000295268 6.80547 0.0501305 7.32784 0.238204C8.30261 0.589868 9.29654 1.10382 10.0855 1.66371C10.4259 1.9053 10.9717 2.38805 11.2529 2.69638C12.3582 3.90803 12.7215 5.36712 12.2998 6.9014C12.2218 7.18026 12.0705 7.60277 11.9717 7.81403L11.9055 7.95487L13.1893 9.13163L14.4727 10.3084L12.8007 11.8409L11.1288 13.3737L9.89738 12.2422Z" fill="white" fill-opacity="0.6"/>
</svg>
