<svg width="31" height="32" viewBox="0 0 31 32" fill="none" xmlns="http://www.w3.org/2000/svg">
<path d="M12.532 19.1051C12.532 18.4082 12.5848 18.7322 9.02602 11.3051C8.29903 9.78916 6.21772 9.78305 5.48486 11.3051C1.89681 18.7994 1.97889 18.4327 1.97889 19.1051C1.97889 21.0062 4.34161 22.5405 7.25544 22.5405C10.1693 22.5405 12.532 21.0062 12.532 19.1051ZM7.25544 12.2343L10.222 18.4204L4.28884 18.4204L7.25544 12.2343ZM28.3617 19.1051C28.3617 18.4082 28.4144 18.7322 24.8557 11.3051C24.1287 9.78916 22.0474 9.78305 21.3145 11.3051C17.7265 18.7994 17.8086 18.4327 17.8086 19.1051C17.8086 21.0062 20.1713 22.5405 23.0851 22.5405C25.9989 22.5405 28.3617 21.0062 28.3617 19.1051ZM20.1185 18.4204L23.0851 12.2343L26.0517 18.4204L20.1185 18.4204ZM23.7417 23.922L16.4894 23.922L16.4894 11.2562C17.4568 10.8161 18.1838 9.9053 18.4007 8.79277L23.7417 8.79277C24.1052 8.79277 24.3984 8.48713 24.3984 8.10814L24.3984 6.73276C24.3984 6.35376 24.1052 6.04812 23.7417 6.04812L17.791 6.04812C17.193 5.21067 16.2432 4.66663 15.1703 4.66663C14.0974 4.66663 13.1476 5.21067 12.5496 6.04201L6.5988 6.04201C6.23531 6.04201 5.94217 6.34765 5.94217 6.72664L5.94217 8.10202C5.94217 8.48102 6.23531 8.78666 6.5988 8.78666L11.9399 8.78666C12.1568 9.89308 12.8838 10.8039 13.8511 11.2501L13.8511 23.922L6.5988 23.922C6.23531 23.922 5.94217 24.2276 5.94217 24.6066L5.94217 25.982C5.94217 26.361 6.23531 26.6666 6.5988 26.6666L23.7476 26.6666C24.1111 26.6666 24.4042 26.361 24.4042 25.982L24.4042 24.6066C24.4042 24.2276 24.1111 23.922 23.7417 23.922Z" fill="white" fill-opacity="0.6"/>
</svg>
