<svg width="18" height="29" viewBox="0 0 18 29" fill="none" xmlns="http://www.w3.org/2000/svg">
<path d="M17.0452 3.09644H16.5084C15.2272 3.09644 13.1774 4.06786 13.1774 5.355V15.4457H7.21096C5.92982 15.4457 3.88 16.4171 3.88 17.7043V19.3071H17.0452V16.2593V3.09644Z" fill="white" fill-opacity="0.98"/>
<path d="M14.3365 18.5178H1.15912C0.512455 18.5178 0 17.9957 0 17.3642V16.15C0 14.1464 2.29385 12.3493 4.11184 12.3493H9.2974V3.80071C9.2974 1.79714 11.5912 0 13.4092 0H14.3365C14.9832 0 15.4957 0.522142 15.4957 1.15357V17.3642C15.4957 18.0078 14.971 18.5178 14.3365 18.5178ZM2.33045 16.2107H13.1774V2.35571C12.4941 2.51356 11.6278 3.29071 11.6278 3.81285V13.515C11.6278 14.1585 11.1032 14.6685 10.4687 14.6685H4.12404C3.42857 14.6685 2.34265 15.5671 2.34265 16.15V16.2107H2.33045Z" fill="white" fill-opacity="0.56"/>
<path d="M14.3365 28.1714C13.6899 28.1714 13.1774 27.6493 13.1774 27.0179V17.765C13.1774 17.1214 13.7021 16.6115 14.3365 16.6115C14.9832 16.6115 15.4956 17.1336 15.4956 17.765V27.0179C15.4956 27.6493 14.971 28.1714 14.3365 28.1714Z" fill="white" fill-opacity="0.56"/>
<path d="M2.70868 28.1714C2.06202 28.1714 1.54956 27.6493 1.54956 27.0179V17.765C1.54956 17.1214 2.07422 16.6115 2.70868 16.6115C3.35535 16.6115 3.86781 17.1336 3.86781 17.765V27.0179C3.88001 27.6493 3.35535 28.1714 2.70868 28.1714Z" fill="white" fill-opacity="0.56"/>
</svg>
