<svg width="33" height="32" viewBox="0 0 33 32" fill="none" xmlns="http://www.w3.org/2000/svg">
<g clip-path="url(#clip0_12_77)">
<path d="M3.7871 0.884644H29.3871C30.8935 0.884644 32.0871 2.06344 32.0871 3.48464V28.2846C32.0871 29.7058 30.8935 30.8846 29.3871 30.8846H3.7871C2.28073 30.8846 1.0871 29.7058 1.0871 28.2846V3.48464C1.0871 2.06344 2.28073 0.884644 3.7871 0.884644Z" fill="#CDB391" fill-opacity="0.5" stroke="#8B9297"/>
<path fill-rule="evenodd" clip-rule="evenodd" d="M20.6805 28.9047C21.6542 28.9047 22.4436 28.1461 22.4436 27.2106C22.4436 26.275 21.6542 25.5164 20.6805 25.5164H20.4149C21.3886 25.5164 22.178 26.275 22.178 27.2106C22.178 28.1461 21.3886 28.9047 20.4149 28.9047H20.6805Z" fill="#8B9297"/>
<path fill-rule="evenodd" clip-rule="evenodd" d="M20.3909 25.5164H20.1253C19.1516 25.5164 18.3621 26.275 18.3621 27.2106C18.3621 28.1461 19.1516 28.9047 20.1253 28.9047H20.3909C19.4171 28.9047 18.6277 28.1461 18.6277 27.2106C18.6277 26.275 19.4171 25.5164 20.3909 25.5164Z" fill="#60768D"/>
<path d="M20.4029 28.0343C20.8765 28.0343 21.2604 27.6655 21.2604 27.2106C21.2604 26.7556 20.8765 26.3868 20.4029 26.3868C19.9293 26.3868 19.5454 26.7556 19.5454 27.2106C19.5454 27.6655 19.9293 28.0343 20.4029 28.0343Z" fill="#CDB391" fill-opacity="0.5"/>
<path d="M8.12543 25.6094V25.5094H8.02543H7.08709V24.8507H10.061L9.83693 25.5326H9.06415H8.96415V25.6326V28.7815H8.12543V25.6094ZM16.6265 25.6094V25.5094H16.5265H15.5882V24.8507H18.5621L18.338 25.5326H17.5653H17.4653V25.6326V28.7815H16.6265V25.6094ZM14.8497 25.802L13.7529 26.8361L13.6894 26.896L13.7401 26.967L15.0523 28.8047H14.2109L13.2508 27.4767L13.186 27.3872L13.1034 27.4606L12.7894 27.7393L12.7558 27.7691V27.8141V28.7815H11.9414V24.8507H12.7558V26.6766V26.9114L12.9251 26.7487L13.9102 25.802H14.8497ZM25.7902 25.802L24.6935 26.8361L24.63 26.896L24.6807 26.967L25.9928 28.8047H25.1513L24.1909 27.4767L24.1262 27.3872L24.0435 27.4606L23.7296 27.7393L23.6961 27.7692V27.8141V28.7815H22.8815V24.8507H23.6961V26.6766V26.9114L23.8653 26.7487L24.8507 25.802H25.7902ZM10.4925 25.238C10.4925 25.0278 10.6708 24.8507 10.8993 24.8507C11.1282 24.8507 11.3065 25.0279 11.3065 25.238C11.3065 25.4481 11.1283 25.6253 10.8993 25.6253C10.6707 25.6252 10.4925 25.4482 10.4925 25.238ZM10.4925 26.1735H11.3065V28.7815H10.4925V26.1735Z" fill="#B9C9D7" stroke="#8B9297" stroke-width="0.2"/>
<path fill-rule="evenodd" clip-rule="evenodd" d="M21.2165 10.4517C22.6173 11.4213 24.3335 11.9918 26.187 11.9918V8.53828C25.8362 8.53842 25.4863 8.50297 25.1431 8.43251V11.151C23.2898 11.151 21.5738 10.5804 20.1726 9.61088V16.6584C20.1726 20.184 17.221 23.0418 13.58 23.0418C12.2215 23.0418 10.9588 22.6441 9.90985 21.9621C11.107 23.1473 12.7765 23.8827 14.6236 23.8827C18.2648 23.8827 21.2166 21.0248 21.2166 17.4991L21.2165 10.4517ZM22.5042 6.96758C21.7883 6.21031 21.3182 5.23158 21.2165 4.14955V3.70538H20.2273C20.4762 5.08054 21.3255 6.25544 22.5042 6.96758ZM12.2127 19.2568C11.8128 18.7491 11.5966 18.1278 11.5975 17.4891C11.5975 15.8766 12.9477 14.5693 14.6133 14.5693C14.9237 14.5691 15.2323 14.6152 15.5282 14.706V11.1754C15.1824 11.1295 14.8336 11.1101 14.4847 11.1172V13.8653C14.1887 13.7745 13.88 13.7283 13.5695 13.7286C11.9038 13.7286 10.5538 15.0359 10.5538 16.6485C10.5538 17.7887 11.2286 18.776 12.2127 19.2568Z" fill="#8B9297"/>
<path fill-rule="evenodd" clip-rule="evenodd" d="M20.1726 9.61088C21.5738 10.5804 23.2898 11.151 25.1431 11.151V8.43251C24.1086 8.21923 23.1928 7.6957 22.5041 6.96758C21.3255 6.25544 20.4762 5.08054 20.2273 3.70538H17.629V17.499C17.6231 19.1071 16.2753 20.4091 14.6132 20.4091C13.6338 20.4091 12.7636 19.9571 12.2126 19.2568C11.2285 18.776 10.5537 17.7887 10.5537 16.6485C10.5537 15.0359 11.9037 13.7286 13.5694 13.7286C13.8885 13.7286 14.1961 13.7767 14.4846 13.8653V11.1172C10.9076 11.1888 8.03081 14.0187 8.03081 17.4991C8.03081 19.2365 8.74722 20.8116 9.90985 21.9623C10.9588 22.6443 12.2215 23.0419 13.58 23.0419C17.221 23.0419 20.1726 20.184 20.1726 16.6585V9.61088Z" fill="#B9C9D7"/>
<path fill-rule="evenodd" clip-rule="evenodd" d="M25.1431 8.43247V7.6974C24.2102 7.69876 23.2957 7.44579 22.5041 6.96741C23.2048 7.71015 24.1274 8.22235 25.1431 8.43247ZM20.2273 3.70534C20.2035 3.57394 20.1853 3.44164 20.1726 3.30879V2.86462H16.585V16.6584C16.5793 18.2663 15.2316 19.5683 13.5694 19.5683C13.0813 19.5683 12.6206 19.4562 12.2126 19.2568C12.7636 19.957 13.6337 20.409 14.6132 20.409C16.2752 20.409 17.6231 19.107 17.629 17.499V3.70534H20.2273ZM14.4847 11.1172V10.3346C14.1849 10.2949 13.8827 10.2751 13.5801 10.2752C9.93877 10.2752 6.98709 13.1332 6.98709 16.6584C6.98709 18.8686 8.14715 20.8164 9.90997 21.9621C8.74735 20.8114 8.03093 19.2363 8.03093 17.499C8.03093 14.0187 10.9076 11.1887 14.4847 11.1172Z" fill="#60768D"/>
<path fill-rule="evenodd" clip-rule="evenodd" d="M20.4148 28.9047C21.3885 28.9047 22.178 28.1461 22.178 27.2106C22.178 26.275 21.3885 25.5164 20.4148 25.5164H20.3907C19.417 25.5164 18.6277 26.275 18.6277 27.2106C18.6277 28.1461 19.417 28.9047 20.3907 28.9047H20.4148ZM19.5454 27.2106C19.5454 26.7555 19.9294 26.3868 20.403 26.3868C20.8762 26.3868 21.2602 26.7555 21.2602 27.2106C21.2602 27.6656 20.8762 28.0345 20.403 28.0345C19.9294 28.0344 19.5454 27.6656 19.5454 27.2106Z" fill="#B9C9D7"/>
</g>
<defs>
<clipPath id="clip0_12_77">
<rect width="32" height="31" fill="white" transform="translate(0.587097 0.384644)"/>
</clipPath>
</defs>
</svg>
