<svg width="31" height="30" viewBox="0 0 31 30" fill="none" xmlns="http://www.w3.org/2000/svg">
<g clip-path="url(#clip0_12_88)">
<path d="M1.7817 25.6325L1.78181 25.6327C2.18594 26.3971 2.73828 27.0424 3.44351 27.5716L3.44409 27.572C3.95209 27.9544 4.49857 28.2518 5.09674 28.4383C6.0016 28.72 6.94456 28.8308 7.91783 28.8363L7.91805 28.8363C8.17181 28.8379 8.42022 28.8411 8.66658 28.8444C9.04566 28.8494 9.41986 28.8543 9.80115 28.8528C11.5744 28.8456 13.3435 28.8487 15.1109 28.8519C17.9132 28.8568 20.7112 28.8618 23.515 28.8256C24.0869 28.8182 24.6557 28.7507 25.2337 28.6487C26.2896 28.4621 27.215 28.0294 28.0078 27.3472C28.9403 26.5445 29.5585 25.5742 29.8386 24.4052L29.8386 24.4052C30.0258 23.6242 30.0755 22.8207 30.084 21.984V21.8167V21.8159L30.084 21.8133L30.0839 21.8041L30.0839 21.7703L30.0837 21.6443L30.0828 21.177L30.0799 19.5273L30.0707 14.5385C30.0673 12.723 30.0638 10.9037 30.0611 9.52635L30.0575 7.84763L30.0563 7.36156L30.0559 7.22539L30.0558 7.18669L30.0557 7.1754L30.0557 7.1713C30.0493 6.66947 30.011 6.18239 29.917 5.706L29.917 5.70594C29.7984 5.10417 29.6366 4.54916 29.3603 4.0453L29.3602 4.04522C29.0562 3.49055 28.6776 2.99556 28.2105 2.56364L28.2103 2.56346C27.4884 1.89527 26.662 1.4278 25.6995 1.17987C24.8144 0.952049 23.8988 0.898101 22.9429 0.899013L22.6908 0.899254L22.68 0.884644H8.65217L8.65092 0.891667L8.23915 0.898935C8.1436 0.900622 8.04954 0.901914 7.95673 0.90319C7.49657 0.909513 7.06695 0.915416 6.63754 0.966841L1.7817 25.6325ZM1.7817 25.6325C1.49204 25.0851 1.33321 24.4841 1.21811 23.8308L1.7817 25.6325ZM2.82703 2.69066L2.8269 2.6908C2.12929 3.38822 1.64547 4.18573 1.38896 5.11058L1.3889 5.1108C1.1553 5.95159 1.10083 6.82212 1.09952 7.73629C1.09952 7.73634 1.09952 7.73639 1.09952 7.73643L1.08968 21.9811C1.09145 22.0446 1.09311 22.1076 1.09476 22.1702C1.11013 22.7535 1.12441 23.2957 1.21809 23.8307L2.82703 2.69066ZM2.82703 2.69066C3.44047 2.07692 4.15588 1.61933 4.98083 1.32482C5.50029 1.13961 6.05463 1.03676 6.63745 0.966851L2.82703 2.69066Z" fill="#CDB391" fill-opacity="0.5" stroke="#8B9297"/>
<path d="M4.04177 9.64329C4.30017 8.13701 5.31707 7.2382 6.88968 7.14039C12.1984 6.78543 17.5424 6.8275 22.8393 6.9931C23.3987 7.00828 23.962 7.09126 24.5136 7.1857C27.1061 7.62428 27.2905 10.0034 27.4545 12.1204C27.4628 12.2269 27.471 12.3327 27.4794 12.4376M4.04177 9.64329C3.58405 12.3278 3.49015 15.084 3.7327 17.7911M4.04177 9.64329L4.53466 9.72733C4.53464 9.72742 4.53463 9.7275 4.53461 9.72759M4.04177 9.64329L4.53457 9.72783C4.53459 9.72775 4.5346 9.72767 4.53461 9.72759M3.7327 17.7911C3.73573 17.8242 3.73875 17.8574 3.74178 17.8907C3.91516 19.795 4.11777 22.0203 6.45153 22.4804C7.70795 22.7326 8.98716 22.7427 10.2688 22.7528C10.5794 22.7553 10.8902 22.7577 11.2008 22.7636M3.7327 17.7911L4.23063 17.7456C4.23064 17.7457 4.23065 17.7459 4.23067 17.746C3.99185 15.0802 4.08452 12.3675 4.53461 9.72759M3.7327 17.7911L4.23071 17.7465L26.981 12.4778M11.2008 22.7636L16.1183 22.8504M11.2008 22.7636L11.2096 22.2637L11.2099 22.2637M11.2008 22.7636L11.2103 22.2637L11.2099 22.2637M16.1183 22.8504C16.1261 22.8504 16.1418 22.8504 16.1417 22.8621M16.1183 22.8504V22.3504H16.1185C16.119 22.3504 16.1205 22.3504 16.1229 22.3504C16.13 22.3505 16.1445 22.3507 16.1608 22.3519C16.1771 22.353 16.206 22.3557 16.2416 22.3638M16.1183 22.8504L26.981 12.4778M16.1417 22.8621C18.8801 22.9115 21.5482 22.7564 24.2789 22.5638C26.4583 22.4165 26.9748 20.8908 27.2447 19.0714C27.5811 16.874 27.6555 14.6501 27.4794 12.4376M16.1417 22.8621L16.6417 22.8672C16.643 22.7392 16.596 22.6092 16.4999 22.5091C16.4166 22.4223 16.3245 22.3873 16.2762 22.3728C16.2642 22.3692 16.2526 22.3662 16.2416 22.3638M16.1417 22.8621L16.1507 22.3622C16.181 22.3627 16.2113 22.3633 16.2416 22.3638M27.4794 12.4376L26.981 12.4778M27.4794 12.4376L26.981 12.4773C26.981 12.4775 26.981 12.4776 26.981 12.4778M26.981 12.4778C26.9727 12.3742 26.9646 12.2709 26.9566 12.1678C26.8768 11.1466 26.7996 10.1581 26.485 9.3433C26.3168 8.90776 26.0882 8.54588 25.7717 8.269C25.4577 7.99425 25.0313 7.78038 24.4302 7.6787L24.4292 7.67853C23.8824 7.5849 23.348 7.50709 22.8257 7.49292L22.8237 7.49286C17.5334 7.32747 12.208 7.28591 6.92304 7.63928L6.92072 7.63943L6.92072 7.63943C6.22354 7.68279 5.68816 7.9002 5.30325 8.23899C4.91929 8.57694 4.64774 9.06841 4.53461 9.72759M26.981 12.4778C27.154 14.6526 27.0809 16.8375 26.7504 18.9957L26.7501 18.998C26.6163 19.8999 26.4313 20.6347 26.0671 21.1596C25.7285 21.6475 25.2017 22.0003 24.2452 22.065L24.2437 22.0651C21.5458 22.2554 18.9249 22.4077 16.2416 22.3638M11.2099 22.2637C10.8865 22.2576 10.5672 22.255 10.2514 22.2524C8.97449 22.242 7.75501 22.2321 6.54994 21.9902L6.54825 21.9898C5.55136 21.7933 5.03756 21.236 4.72974 20.4913C4.41085 19.7197 4.32448 18.7736 4.23645 17.8093L11.2099 22.2637ZM12.7273 18.2442V19.0929L13.4696 18.6815C14.3259 18.2071 15.175 17.7361 16.022 17.2662C17.2114 16.6064 18.3968 15.949 19.5919 15.2874L20.3824 14.8497L19.5917 14.4124C18.4803 13.7976 17.3843 13.1894 16.2894 12.5818C15.3517 12.0614 14.4147 11.5415 13.4694 11.0182L12.7273 10.6073V11.4556V18.2442Z" fill="#B8C8D7" stroke="#8B9297"/>
</g>
<defs>
<clipPath id="clip0_12_88">
<rect width="30" height="29" fill="white" transform="translate(0.587097 0.384644)"/>
</clipPath>
</defs>
</svg>
