<svg width="72" height="72" viewBox="0 0 72 72" fill="none" xmlns="http://www.w3.org/2000/svg">
<path d="M57.9064 66.0747C57.5824 65.725 53.826 61.7295 49.5631 57.1981L41.8123 48.9593L45.4925 45.2785L49.1728 41.5978L49.9 42.2931C50.3011 42.6737 54.2554 46.4856 58.6896 50.7598L66.7521 58.5322L62.6625 62.6218C60.413 64.8713 58.5559 66.7119 58.5359 66.7119C58.5359 66.7119 58.2324 66.4239 57.9064 66.0747ZM61.3166 59.0979C61.6715 58.005 61.9522 57.1076 61.9445 57.103C61.9445 57.0978 61.17 56.5429 60.2407 55.8687L58.5513 54.6437L56.9138 55.8342C56.0133 56.4889 55.2511 57.0485 55.2197 57.0778C55.1477 57.1446 55.1632 57.1858 55.879 59.3905L56.4401 61.117H58.5574H60.6748L61.3166 59.1308V59.0979ZM18.7111 66.4254C17.7206 66.2454 16.8304 65.9163 15.9838 65.4149C15.4274 65.0857 14.2852 64.0649 13.8532 63.5094C13.4726 63.0157 12.9969 62.0226 12.8323 61.3638C12.6472 60.6305 12.6009 59.1313 12.7346 58.3198L12.8323 57.732L21.3206 49.2437L29.8084 40.7559L31.2262 40.9616L32.6436 41.1673L40.0581 33.7122L47.4725 26.2566L47.668 25.7578C48.172 24.4752 48.3484 23.0712 48.1308 22.0817C47.7451 20.3192 46.4614 19.0921 44.179 18.2976C43.4601 18.0456 42.2597 17.7884 41.551 17.7267L41.083 17.6753L39.0712 15.6624L37.0593 13.65L41.1628 9.54596L45.2668 5.44196L47.5368 7.71099L49.8069 9.98001V10.4326C49.7554 11.0626 49.9406 12.0613 50.1669 12.6368C50.8139 14.3 52.4873 15.2679 54.7152 15.2679H55.1318L55.714 15.7153C60.4305 19.3205 63.7019 22.9333 65.4957 26.5184C66.2357 27.998 66.4924 28.8276 66.7526 30.5874C66.9017 31.5918 66.9223 31.9056 66.9223 33.3975C66.9259 35.6161 66.732 37.2402 66.1756 39.6471C65.8001 41.283 64.8626 44.2602 64.535 44.8728C64.463 45.0065 64.3858 44.9345 62.86 43.4122L61.2595 41.8128L61.2081 40.3414C61.1155 36.9404 60.6274 34.533 59.6287 32.5268C58.9653 31.1948 58.163 30.2434 57.085 29.5105C56.1305 28.862 55.7129 28.7561 55.139 29.0168C54.9281 29.1094 53.3827 30.6168 48.6405 35.342C45.2179 38.7522 41.3119 42.6413 39.9604 43.9841L37.5026 46.4254L37.3432 47.8613L37.1837 49.2972L36.5918 49.8978C36.2678 50.227 32.5361 54.0944 28.3041 58.4895L20.6088 66.4805H19.9171C19.5314 66.4805 19.0073 66.429 18.7281 66.4033L18.7111 66.4254ZM27.5347 34.0573L24.8542 31.3769L24.3014 31.598C23.0877 32.0814 21.7269 32.4193 20.3604 32.5767C19.3411 32.695 17.5267 32.6281 16.5928 32.4224C11.5507 31.3614 8.06539 27.171 6.23659 19.9716C5.9743 18.9445 5.96916 18.8926 6.03602 18.4894C6.16459 17.7375 6.5827 17.3405 7.2487 17.3374L7.54185 17.3358L7.91213 17.8805C9.52699 20.2359 11.5312 22.0215 13.3605 22.7348C14.2168 23.0691 14.5932 23.1411 15.4752 23.1462C16.1253 23.1488 16.385 23.1462 16.8016 23.0074C18.5506 22.5342 20.8042 20.7193 22.1434 18.7044C23.0249 17.378 23.5248 16.1093 23.8442 14.3874C23.9625 13.7621 23.9728 13.5898 23.9162 13.2858C23.6642 11.9328 21.679 9.53259 18.8973 7.2183L18.3141 6.73487L18.31 6.29259C18.31 5.69602 18.4745 5.36893 18.8993 5.14984C19.1616 5.01613 19.2799 4.99556 19.7345 5.0007C20.3779 5.0007 20.8073 5.11899 21.9439 5.56539C24.0648 6.40007 26.2274 7.61996 27.9441 8.94887C28.6846 9.5223 29.8721 10.6681 30.4841 11.4C32.8889 14.2758 33.6794 17.739 32.7619 21.3807C32.5922 22.0426 32.263 23.0454 32.0481 23.5469L31.9041 23.8812L34.6972 26.6742L37.4897 29.4673L33.8517 33.1049L30.2141 36.7429L27.5347 34.0573Z" fill="white" fill-opacity="0.6"/>
</svg>
