<svg width="136" height="93" viewBox="0 0 136 93" fill="none" xmlns="http://www.w3.org/2000/svg">
<path d="M42.1934 42.4392H100.095V36.3043C100.095 34.1132 100.913 32.4856 98.7113 32.4856H48.7981C46.5965 32.4856 42.1934 34.1132 42.1934 36.3043V42.4392Z" fill="white" fill-opacity="0.98"/>
<path d="M130.068 18.5881H128.684C125.382 18.5881 120.098 21.0922 120.098 24.41V50.4208H104.719C101.416 50.4208 96.1323 52.9249 96.1323 56.2427V60.3744H130.068V52.518V18.5881Z" fill="white" fill-opacity="0.98"/>
<path d="M14.2332 18.5881H20.8379C24.1403 18.5881 24.2347 21.0922 24.2347 24.41V50.4208H44.8038C48.1062 50.4208 48.2006 52.9249 48.2006 56.2427V60.3744H14.2332V52.518V18.5881Z" fill="white" fill-opacity="0.98"/>
<path d="M93.113 40.4673H35.2111C33.5442 40.4673 32.2233 39.1214 32.2233 37.4937V32.3604C32.2233 28.354 37.0668 24.5666 40.8095 24.5666H90.7227C93.1759 24.5666 96.1009 25.9125 96.1009 32.3604V37.4937C96.1323 39.1214 94.7799 40.4673 93.113 40.4673ZM38.199 34.4889H90.1251V32.3291C90.1251 31.4214 90.0622 30.858 90.0308 30.5137H40.8095C40.0546 30.545 38.3877 31.797 38.199 32.4856V34.4889Z" fill="white" fill-opacity="0.56"/>
<path d="M81.0357 82.41C80.0921 82.41 79.1801 81.9718 78.5825 81.158L49.49 40.6237C48.515 39.2778 48.8295 37.4311 50.182 36.4608C51.5344 35.4904 53.39 35.8034 54.365 37.1494L83.4574 77.6836C84.4324 79.0295 84.1179 80.8763 82.7655 81.8466C82.2623 82.2222 81.6333 82.41 81.0357 82.41Z" fill="white" fill-opacity="0.56"/>
<path d="M50.989 82.5138C50.3915 82.5138 49.7939 82.326 49.2592 81.9504C47.9068 80.9801 47.5923 79.1334 48.5673 77.7874L77.6597 37.2532C78.6347 35.9073 80.4904 35.5943 81.8428 36.5646C83.1952 37.5349 83.5097 39.3816 82.5347 40.7276L53.4423 81.2618C52.8447 82.0756 51.9326 82.5138 50.989 82.5138Z" fill="white" fill-opacity="0.56"/>
<path d="M123.086 58.3399H89.1187C87.4518 58.3399 86.1308 56.994 86.1308 55.3663V52.2363C86.1308 47.0717 92.0436 42.4392 96.7299 42.4392H110.097V20.4036C110.097 15.239 116.01 10.6065 120.696 10.6065H123.086C124.753 10.6065 126.074 11.9524 126.074 13.5801V55.3663C126.074 57.0253 124.722 58.3399 123.086 58.3399ZM92.138 52.3928H120.098V16.6788C118.337 17.0857 116.104 19.089 116.104 20.4349V45.444C116.104 47.103 114.751 48.4176 113.116 48.4176H96.7613C94.9686 48.4176 92.1695 50.7338 92.1695 52.2363V52.3928H92.138Z" fill="white" fill-opacity="0.56"/>
<path d="M123.086 83.2238C121.419 83.2238 120.098 81.8779 120.098 80.2503V56.3992C120.098 54.7403 121.451 53.4257 123.086 53.4257C124.753 53.4257 126.074 54.7716 126.074 56.3992V80.2503C126.074 81.8779 124.722 83.2238 123.086 83.2238Z" fill="white" fill-opacity="0.56"/>
<path d="M93.113 83.2238C91.4461 83.2238 90.1251 81.8779 90.1251 80.2503V56.3992C90.1251 54.7403 91.4775 53.4257 93.113 53.4257C94.7799 53.4257 96.1009 54.7716 96.1009 56.3992V80.2503C96.1323 81.8779 94.7799 83.2238 93.113 83.2238Z" fill="white" fill-opacity="0.56"/>
<path d="M41.2183 58.3399H7.25094C5.58402 58.3399 4.26306 56.994 4.26306 55.3663V13.6114C4.26306 11.9524 5.61547 10.6378 7.25094 10.6378H12.8493C17.3468 10.6378 20.2403 14.4878 20.2403 20.4349V42.4705H36.8152C41.3127 42.4705 44.2062 46.3205 44.2062 52.2676V55.3976C44.2062 57.0253 42.8538 58.3399 41.2183 58.3399ZM10.2388 52.3928H38.199V52.2363C38.199 51.1721 37.9474 48.4176 36.8152 48.4176H17.2525C15.5855 48.4176 14.2646 47.0717 14.2646 45.4441V20.4349C14.2646 19.3707 14.013 16.6162 12.8807 16.6162H10.2388V52.3928Z" fill="white" fill-opacity="0.56"/>
<path d="M7.25094 83.2238C5.58402 83.2238 4.26306 81.8779 4.26306 80.2503V56.3992C4.26306 54.7403 5.61547 53.4257 7.25094 53.4257C8.8864 53.4257 10.2388 54.7716 10.2388 56.3992V80.2503C10.2388 81.8779 8.91785 83.2238 7.25094 83.2238Z" fill="white" fill-opacity="0.56"/>
<path d="M37.224 83.2238C35.5571 83.2238 34.2361 81.8779 34.2361 80.2503V56.3992C34.2361 54.7403 35.5886 53.4257 37.224 53.4257C38.8595 53.4257 40.2119 54.7716 40.2119 56.3992V80.2503C40.2119 81.8779 38.8595 83.2238 37.224 83.2238Z" fill="white" fill-opacity="0.56"/>
<path d="M47.0997 26.5385C47.0683 26.5385 47.0368 26.5385 47.0054 26.5385C46.9739 26.5385 46.9425 26.5385 46.8796 26.5385C42.8853 26.4446 40.2119 24.0032 40.2119 20.4036V16.5849C40.2119 14.926 41.5643 13.6114 43.1998 13.6114C44.8353 13.6114 46.1877 14.9573 46.1877 16.5849V20.4036C46.1248 20.4349 46.3449 20.5601 47.0368 20.5601C47.8231 20.5601 48.2005 20.341 48.2634 20.3097L48.1691 16.5849C48.1691 14.926 49.5215 13.6114 51.157 13.6114C52.7924 13.6114 54.1448 14.9573 54.1448 16.5849V20.4036C54.1448 23.9406 51.2828 26.5385 47.1626 26.5385C47.1626 26.5385 47.1312 26.5385 47.0997 26.5385Z" fill="white" fill-opacity="0.56"/>
<path d="M85.1243 26.5385C85.0929 26.5385 85.0929 26.5385 85.1243 26.5385C85.0929 26.5385 85.0929 26.5385 85.0614 26.5385C80.9413 26.5072 78.1422 24.0658 78.1422 20.4036V16.5849C78.1422 14.926 79.4946 13.6114 81.13 13.6114C82.7969 13.6114 84.1179 14.9573 84.1179 16.5849V20.4036C84.0864 20.4349 84.4324 20.5601 85.0614 20.5601C85.7534 20.5601 86.1308 20.4036 86.1937 20.341L86.0993 16.5849C86.0993 14.926 87.4517 13.6114 89.0872 13.6114C90.7227 13.6114 92.0751 14.9573 92.0751 16.5849V20.4036C92.138 24.0658 89.3074 26.5072 85.1243 26.5385Z" fill="white" fill-opacity="0.56"/>
</svg>
