<svg width="56" height="89" viewBox="0 0 56 89" fill="none" xmlns="http://www.w3.org/2000/svg">
<path d="M47.248 57.0224L8.20963 57.0224C7.55005 57.0224 7.01483 56.153 7.01483 55.073C7.01483 53.9969 7.55005 53.1235 8.20963 53.1235L47.248 53.1235C47.91 53.1235 48.444 53.9969 48.444 55.073C48.444 56.153 47.91 57.0224 47.248 57.0224ZM40.4197 75.2568L42.6411 73.6504L44.6503 80.7542L42.429 82.3606L40.4197 75.2568ZM25.3026 6.33673L30.1794 6.33673L30.1794 19.9829L25.3026 19.9829L25.3026 6.33673ZM13.0489 82.3775L10.8275 80.7712L12.8368 73.6674L15.0581 75.2738L13.0489 82.3775Z" fill="white" fill-opacity="0.6"/>
<path d="M47.2475 58.9714C48.5942 58.9714 49.6859 57.2258 49.6859 55.0725C49.6859 52.9192 48.5942 51.1736 47.2475 51.1736C45.9009 51.1736 44.8092 52.9192 44.8092 55.0725C44.8092 57.2258 45.9009 58.9714 47.2475 58.9714Z" fill="white" fill-opacity="0.6"/>
<path d="M8.23391 58.9714C9.58058 58.9714 10.6723 57.2258 10.6723 55.0725C10.6723 52.9192 9.58058 51.1736 8.23391 51.1736C6.88725 51.1736 5.79556 52.9192 5.79556 55.0725C5.79556 57.2258 6.88725 58.9714 8.23391 58.9714Z" fill="white" fill-opacity="0.6"/>
<path d="M33.6845 33.1124C32.5653 35.0229 31.0511 36.329 29.3479 36.7014L40.5924 75.8483L42.8175 74.2283L43.1259 65.8339L33.6845 33.1124ZM21.8097 33.1124C22.9289 35.0229 24.4431 36.329 26.1463 36.7014L14.9018 75.8483L12.6767 74.2283L12.3683 65.8339L21.8097 33.1124Z" fill="white" fill-opacity="0.6"/>
<path d="M27.741 16.084C23.7018 16.084 20.4259 21.3222 20.4259 27.7807C20.4259 34.2392 23.7018 39.4774 27.741 39.4774C31.7802 39.4774 35.0561 34.2392 35.0561 27.7807C35.0561 21.3222 31.7802 16.084 27.741 16.084ZM27.741 33.629C25.722 33.629 24.0834 31.009 24.0834 27.7807C24.0834 24.5524 25.722 21.9323 27.741 21.9323C29.76 21.9323 31.3985 24.5524 31.3985 27.7807C31.3985 31.009 29.76 33.629 27.741 33.629ZM25.3026 49.2246L30.1794 49.2246L30.1794 60.9213L25.3026 60.9213L25.3026 49.2246Z" fill="white" fill-opacity="0.6"/>
</svg>
