<svg width="81" height="81" viewBox="0 0 81 81" fill="none" xmlns="http://www.w3.org/2000/svg">
<path d="M33.1804 49.391C33.1804 47.5875 33.3212 48.426 23.827 29.2043C21.8875 25.2809 16.3349 25.265 14.3798 29.2043C4.80745 48.6 5.02643 47.6508 5.02643 49.391C5.02643 54.3111 11.3298 58.282 19.1034 58.282C26.877 58.282 33.1804 54.3111 33.1804 49.391ZM19.1034 31.609L27.0178 47.6191L11.189 47.6191L19.1034 31.609ZM75.4114 49.391C75.4114 47.5875 75.5521 48.426 66.058 29.2043C64.1185 25.2809 58.5659 25.265 56.6108 29.2043C47.0384 48.6 47.2574 47.6508 47.2574 49.391C47.2574 54.3111 53.5608 58.282 61.3344 58.282C69.108 58.282 75.4114 54.3111 75.4114 49.391ZM53.42 47.6191L61.3344 31.609L69.2488 47.6191L53.42 47.6191ZM63.0862 61.8574L43.7381 61.8574L43.7381 29.0777C46.3189 27.9387 48.2584 25.5814 48.8371 22.7021L63.0862 22.7021C64.0559 22.7021 64.838 21.9111 64.838 20.9303L64.838 17.3707C64.838 16.3898 64.0559 15.5988 63.0862 15.5988L47.2105 15.5988C45.6151 13.4314 43.0812 12.0234 40.2189 12.0234C37.3566 12.0234 34.8227 13.4314 33.2273 15.583L17.3516 15.583C16.3819 15.583 15.5998 16.374 15.5998 17.3549L15.5998 20.9145C15.5998 21.8953 16.3819 22.6863 17.3516 22.6863L31.6007 22.6863C32.1794 25.5498 34.1189 27.907 36.6997 29.0619L36.6997 61.8574L17.3516 61.8574C16.3819 61.8574 15.5998 62.6484 15.5998 63.6293L15.5998 67.1889C15.5998 68.1697 16.3819 68.9607 17.3516 68.9607L63.1018 68.9607C64.0716 68.9607 64.8536 68.1697 64.8536 67.1889L64.8536 63.6293C64.8536 62.6484 64.0716 61.8574 63.0862 61.8574Z" fill="white" fill-opacity="0.6"/>
</svg>
